<?xml version="1.0" encoding="UTF-8"?>
<svg id="Layer_1" xmlns="http://www.w3.org/2000/svg" version="1.1" viewBox="0 0 200 200">
  <!-- Generator: Adobe Illustrator 29.1.0, SVG Export Plug-In . SVG Version: 2.1.0 Build 142)  -->
  <defs>
    <style>
      .st0 {
        fill: #fff;
        stroke: #000;
        stroke-miterlimit: 10;
      }
    </style>
  </defs>
  <rect class="st0" width="200" height="200"/>
  <path d="M64.3,58v59.9c0,7.6-2.2,13.6-6.4,17.8-4.3,4.2-10,6.3-17.1,6.3s-12.6-2.1-16.9-6.2c-4.3-4.1-6.5-9.9-6.5-17.2v-7.5h9.9v7.5c0,4.5,1.2,8,3.6,10.4,2.4,2.4,5.6,3.6,9.8,3.6s7.4-1.2,9.9-3.6,3.7-5.9,3.7-10.5v-60.5h10.1,0Z"/>
  <path d="M182.6,58l-22,81.9h-9.8l-20.2-66.7-20.4,66.7h-9.8l-22-81.9h10.8l16.6,67.2,20.1-67.2h9.8l20.1,67.3,16.6-67.3h10.2Z"/>
</svg>